HIERARCHY
ROOT root
{
	OFFSET 0.000000 0.000000 0.000000
	CHANNELS 6 Xposition Yposition Zposition Zrotation Yrotation Xrotation
	JOINT lhip
	{
		OFFSET 0.058581 -0.082280 -0.017664
		CHANNELS 3 Zrotation Yrotation Xrotation
		JOINT lknee
		{
			OFFSET 0.043451 -0.386469 0.008037
			CHANNELS 3 Zrotation Yrotation Xrotation
			JOINT lankle
			{
				OFFSET -0.014790 -0.426874 -0.037428
				CHANNELS 3 Zrotation Yrotation Xrotation
				JOINT ltoe
				{
					OFFSET 0.041054 -0.060286 0.122042
					CHANNELS 3 Zrotation Yrotation Xrotation
					End Site
					{
						OFFSET 0.000000 0.000000 0.000000
					}
				}
			}
		}
	}
	JOINT rhip
	{
		OFFSET -0.060310 -0.090513 -0.013543
		CHANNELS 3 Zrotation Yrotation Xrotation
		JOINT rknee
		{
			OFFSET -0.043257 -0.383688 -0.004843
			CHANNELS 3 Zrotation Yrotation Xrotation
			JOINT rankle
			{
				OFFSET 0.019056 -0.420046 -0.034562
				CHANNELS 3 Zrotation Yrotation Xrotation
				JOINT rtoe
				{
					OFFSET -0.034840 -0.062106 0.130323
					CHANNELS 3 Zrotation Yrotation Xrotation
					End Site
					{
						OFFSET 0.000000 0.000000 0.000000
					}
				}
			}
		}
	}
	JOINT lowerback
	{
		OFFSET 0.004439 0.124404 -0.038385
		CHANNELS 3 Zrotation Yrotation Xrotation
		JOINT upperback
		{
			OFFSET 0.004488 0.137956 0.026820
			CHANNELS 3 Zrotation Yrotation Xrotation
			JOINT chest
			{
				OFFSET -0.002265 0.056032 0.002855
				CHANNELS 3 Zrotation Yrotation Xrotation
				JOINT lowerneck
				{
					OFFSET -0.013390 0.211636 -0.033468
					CHANNELS 3 Zrotation Yrotation Xrotation
					JOINT upperneck
					{
						OFFSET 0.010113 0.088937 0.050410
						CHANNELS 3 Zrotation Yrotation Xrotation
						End Site
						{
							OFFSET 0.000000 0.000000 0.000000
						}
					}
				}
				JOINT lclavicle
				{
					OFFSET 0.071702 0.114000 -0.018898
					CHANNELS 3 Zrotation Yrotation Xrotation
					JOINT lshoulder
					{
						OFFSET 0.122921 0.045205 -0.019046
						CHANNELS 3 Zrotation Yrotation Xrotation
						JOINT lelbow
						{
							OFFSET 0.255332 -0.015649 -0.022946
							CHANNELS 3 Zrotation Yrotation Xrotation
							JOINT lwrist
							{
								OFFSET 0.265709 0.012698 -0.007375
								CHANNELS 3 Zrotation Yrotation Xrotation
								End Site
								{
									OFFSET 0.000000 0.000000 0.000000
								}
							}
						}
					}
				}
				JOINT rclavicle
				{
					OFFSET -0.082954 0.112472 -0.023707
					CHANNELS 3 Zrotation Yrotation Xrotation
					JOINT rshoulder
					{
						OFFSET -0.113228 0.046853 -0.008472
						CHANNELS 3 Zrotation Yrotation Xrotation
						JOINT relbow
						{
							OFFSET -0.260127 -0.014369 -0.031269
							CHANNELS 3 Zrotation Yrotation Xrotation
							JOINT rwrist
							{
								OFFSET -0.269108 0.006794 -0.006027
								CHANNELS 3 Zrotation Yrotation Xrotation
								End Site
								{
									OFFSET 0.000000 0.000000 0.000000
								}
							}
						}
					}
				}
			}
		}
	}
}
MOTION
Frames: 13
Frame Time: 0.033333
0.087285 -0.069268 0.965840 -179.128557 -0.810445 93.459001 7.963002 2.580507 -14.051646 -5.941981 -2.624179 16.948374 1.182850 5.224665 -9.441581 0.000000 -0.000000 0.000000 -11.488166 -6.458996 -16.669270 -0.490045 -2.371831 21.151416 5.761635 -4.085355 -6.860720 0.000000 -0.000000 0.000000 0.415126 3.006064 20.191261 2.318746 -3.942299 3.511592 2.219734 0.158329 -2.990846 -1.849165 6.255148 8.610327 4.398359 2.634481 24.003889 -23.914329 -29.309332 7.997876 -73.146123 -25.903129 24.844928 3.712194 -16.053241 1.126652 19.676141 11.043727 -31.621783 27.699518 27.610476 12.059271 65.666707 31.161824 16.244341 -13.273825 7.107554 -18.344027 6.435313 3.221871 -26.149706 
0.086824 -0.069173 0.966145 -179.095943 -0.853019 93.339555 7.881622 2.491371 -13.841665 -5.777663 -2.691322 16.854857 1.263506 4.864290 -9.568859 0.000000 -0.000000 0.000000 -11.589212 -6.955760 -16.741219 -0.479723 -3.507694 21.307368 5.554420 -4.068517 -6.206276 0.000000 -0.000000 0.000000 0.549788 3.135979 20.388563 2.253492 -4.106122 3.310587 2.228177 0.203708 -2.942163 -1.914469 6.245386 8.690887 4.464286 2.598899 24.128011 -23.954898 -29.590034 8.145669 -73.080776 -26.013080 24.462044 3.717116 -15.639427 0.407976 19.529455 10.379164 -30.708081 27.927238 27.691975 12.241373 65.447071 31.133838 15.847463 -13.255282 7.090431 -18.485222 6.186248 3.061686 -25.755384 
0.086417 -0.069077 0.966275 -178.999497 -0.823096 93.362317 7.886363 2.608357 -13.953942 -5.885489 -2.372931 16.854060 1.384208 4.960265 -9.451172 0.000000 -0.000000 0.000000 -11.588678 -7.003134 -16.585059 -0.466547 -3.615206 21.041500 5.656112 -4.076389 -6.060570 0.000000 -0.000000 0.000000 0.605472 3.179446 20.327956 2.347640 -4.105972 3.241624 2.294217 0.120970 -2.896975 -2.025476 6.380660 8.751057 4.446352 2.646288 24.153301 -23.960632 -29.677634 8.191122 -73.186142 -26.171125 24.427119 3.783628 -15.185211 0.314047 19.017211 10.150619 -30.535215 27.920342 27.667229 12.303987 65.423179 31.167045 15.730506 -13.182989 6.989310 -18.444614 6.568085 3.167335 -25.976371 
0.085758 -0.068973 0.966237 -178.925309 -0.843522 93.412337 7.868329 2.453146 -13.935109 -5.784937 -2.632605 16.842022 1.339818 4.649793 -9.598283 0.000000 -0.000000 0.000000 -11.653486 -7.016618 -16.568474 -0.464644 -3.637808 20.947746 5.735177 -4.086854 -5.974519 0.000000 -0.000000 0.000000 0.644898 3.237156 20.196411 2.410879 -4.158633 3.336655 2.328998 0.116998 -2.923917 -2.086228 6.487487 8.705888 4.375053 2.611515 24.151735 -23.866595 -29.698921 8.153268 -73.279003 -26.259648 24.386594 3.772799 -14.990581 0.292083 18.755504 9.916008 -30.116405 27.983440 27.660522 12.303481 65.476806 31.226442 15.675971 -13.324058 6.860889 -18.756788 6.932106 3.197298 -25.531219 
0.085557 -0.068893 0.966268 -178.933098 -0.841174 93.400742 7.892567 2.459764 -13.898151 -5.815279 -2.637372 16.804395 1.351085 4.575202 -9.583898 0.000000 -0.000000 0.000000 -11.687565 -6.995732 -16.491712 -0.439026 -3.670273 20.851670 5.757506 -4.067905 -5.959579 0.000000 -0.000000 0.000000 0.633163 3.264191 20.154603 2.454967 -4.144088 3.378143 2.343858 0.154903 -2.918457 -2.094197 6.576153 8.742669 4.338234 2.576997 24.078958 -23.706645 -29.685468 8.139076 -73.332186 -26.278713 24.434944 3.833636 -15.062331 0.587116 18.152089 9.869721 -30.460759 28.006162 27.638249 12.320521 65.559477 31.293513 15.672424 -13.442574 6.832116 -18.736992 6.945152 3.201754 -25.516326 
0.085130 -0.068774 0.966285 -178.949411 -0.856194 93.396465 7.886424 2.546870 -13.911907 -5.997737 -2.276542 16.722403 1.370269 4.807124 -9.450841 0.000000 -0.000000 0.000000 -11.729088 -7.009715 -16.474311 -0.450087 -3.702114 20.830099 5.732156 -4.055727 -5.943675 0.000000 -0.000000 0.000000 0.612563 3.302690 20.090480 2.517290 -4.113080 3.410058 2.365751 0.167529 -2.886233 -2.068371 6.664924 8.714538 4.220067 2.467819 24.111293 -23.613529 -29.680457 8.066619 -73.275779 -26.298887 24.458983 3.694845 -15.097954 0.572438 17.989579 9.745645 -30.835895 28.025990 27.559320 12.381819 65.542196 31.373002 15.733688 -13.450234 6.975315 -18.652553 6.650622 3.056153 -25.785897 
0.084556 -0.068444 0.966272 -179.045648 -0.869008 93.329911 7.849350 2.581184 -13.797461 -6.015960 -2.272612 16.745429 1.349457 4.832214 -9.555445 0.000000 -0.000000 0.000000 -11.767375 -7.030296 -16.405927 -0.431078 -3.630713 20.802552 5.724065 -4.001329 -5.865742 0.000000 -0.000000 0.000000 0.637449 3.395274 20.049268 2.542216 -4.025320 3.465798 2.371683 0.153582 -2.830750 -2.117320 6.709242 8.774305 4.175712 2.469361 23.988365 -23.626183 -29.668650 8.043259 -73.086893 -26.282914 24.430876 3.517348 -15.356434 0.620420 17.999456 9.803740 -30.960731 27.977196 27.557676 12.401763 65.494699 31.388831 15.761666 -13.390142 7.131082 -18.692138 6.541825 2.859609 -26.094824 
0.083940 -0.068263 0.966171 -179.153560 -0.877648 93.322541 7.810746 2.548012 -13.761287 -6.010786 -2.306593 16.747220 1.437052 4.891402 -9.546876 0.000000 -0.000000 0.000000 -11.798166 -7.017207 -16.441279 -0.447473 -3.528899 20.851576 5.682658 -3.871758 -5.809591 0.000000 -0.000000 0.000000 0.686069 3.357881 20.037207 2.495192 -4.000171 3.556374 2.305308 0.258119 -2.935756 -2.070638 6.714221 8.739457 4.157864 2.458070 24.044111 -23.623881 -29.561295 8.011643 -73.082269 -26.245989 24.318338 3.537876 -15.321773 0.668707 17.732290 9.644549 -31.061584 27.978849 27.614973 12.466441 65.630077 31.426098 15.788661 -13.490993 7.111382 -18.729753 6.677320 3.002691 -25.996272 
0.083551 -0.068099 0.966081 -179.237046 -0.899643 93.316255 7.772903 2.589050 -13.789082 -6.065666 -2.213307 16.815258 1.493487 5.023006 -9.540152 0.000000 -0.000000 0.000000 -11.809886 -7.004467 -16.432080 -0.503876 -3.512648 20.804644 5.680750 -3.866453 -5.834922 0.000000 -0.000000 0.000000 0.695079 3.416904 19.962419 2.497323 -3.962684 3.566830 2.279487 0.221908 -2.859563 -2.067264 6.765259 8.824224 4.148724 2.356586 23.940530 -23.632747 -29.561862 8.090859 -72.847251 -26.217051 24.276008 3.382597 -15.590652 0.622786 17.706978 9.676447 -31.341965 28.050543 27.608671 12.511274 65.616989 31.530235 15.811178 -13.395267 7.097672 -18.818237 6.192974 2.857392 -26.067895 
0.083037 -0.067860 0.965957 -179.348398 -0.838709 93.330647 7.809522 2.553872 -13.824316 -6.040888 -2.168309 16.918376 1.486389 5.039561 -9.618824 0.000000 -0.000000 0.000000 -11.749316 -6.971620 -16.482424 -0.538921 -3.515484 20.807029 5.720389 -3.866978 -5.794520 0.000000 -0.000000 0.000000 0.720408 3.384508 19.917486 2.533862 -3.969596 3.577641 2.282884 0.257102 -2.894095 -2.104416 6.796876 8.875931 4.129360 2.346793 23.917795 -23.622994 -29.522872 8.178073 -72.903428 -26.161360 24.238569 3.474846 -15.629052 0.714316 17.310764 9.506424 -31.619589 28.016401 27.600941 12.495868 65.867001 31.543180 15.891818 -13.541852 7.018863 -18.884734 6.206075 2.799906 -26.073652 
0.082726 -0.067620 0.965951 -179.405512 -0.818393 93.285862 7.771414 2.635981 -13.823372 -6.015664 -2.099749 17.046216 1.514509 5.142489 -9.659233 0.000000 -0.000000 0.000000 -11.760431 -7.005628 -16.439301 -0.499808 -3.506490 20.809131 5.780266 -3.797547 -5.794967 0.000000 -0.000000 0.000000 0.692718 3.383120 19.947841 2.533135 -3.978476 3.592089 2.305573 0.268967 -2.917149 -2.076871 6.804273 8.883753 4.163633 2.387623 23.968278 -23.580785 -29.555851 8.220628 -72.954458 -26.156413 24.235196 3.506983 -15.612660 0.692059 17.263178 9.456443 -31.853001 28.025764 27.664107 12.525596 65.885144 31.416362 15.938643 -13.609901 7.156182 -18.824413 6.275650 2.827161 -26.178061 
0.082466 -0.067384 0.965866 -179.490978 -0.756309 93.270179 7.847986 2.606602 -13.784732 -5.959062 -2.156691 17.192317 1.530740 4.991018 -9.824795 0.000000 -0.000000 0.000000 -11.710296 -6.964884 -16.401880 -0.487795 -3.474206 20.762759 5.728524 -3.796136 -5.794210 0.000000 -0.000000 0.000000 0.667858 3.351259 19.954242 2.563600 -3.988805 3.572953 2.350014 0.333817 -2.938081 -2.128543 6.805343 8.950860 4.236203 2.479763 24.004609 -23.564985 -29.533565 8.233602 -73.067596 -26.149549 24.228560 3.552285 -15.602856 0.693319 17.269949 9.524800 -31.832757 28.010275 27.687217 12.593029 65.876437 31.424875 15.911355 -13.606756 7.130600 -18.828694 6.349829 2.909986 -26.240286 
0.082197 -0.067260 0.965862 -179.521969 -0.733574 93.285804 7.858174 2.616677 -13.820564 -5.966354 -2.071419 17.282354 1.569321 4.991932 -9.912733 0.000000 -0.000000 0.000000 -11.743071 -6.993183 -16.379791 -0.396489 -3.451760 20.680706 5.740988 -3.790157 -5.775114 0.000000 -0.000000 0.000000 0.679880 3.413787 19.965422 2.570430 -3.979995 3.502970 2.363590 0.250048 -2.938926 -2.090670 6.756985 8.931704 4.214760 2.532098 24.083900 -23.681133 -29.524136 8.317645 -73.074260 -26.212474 24.163185 3.567784 -15.500187 0.483809 17.482745 9.538522 -31.802083 27.990583 27.642126 12.572303 65.933283 31.434588 15.939176 -13.641093 7.068825 -18.924165 6.356747 2.884601 -26.179902 
